# xmcd
#
# Track frame offsets:
#	150
#	13799
#	27585
#	45751
#	67870
#	81788
#	98552
#	116830
#	136130
#	153432
#	169457
#	191177
#	209281
#	228328
#	241218
#	253070
#
# Disc length: 3585 seconds
#
# Revision: 0
# Processed by: cddbd v1.5.1PL0 Copyright (c) Steve Scherf et al.
# Submitted via: EasyCDDAExtractor 8.0.1.1
#
DISCID=d10dff10
DTITLE=Various Artist - Southern Fried Soul
DYEAR=1900
DGENRE=
TTITLE0=Luther Kent - Um, Um, Um,Um, Um
TTITLE1=Band Of Oz - Angel
TTITLE2=Memphis All-Stars - Ain't No Doubt About It
TTITLE3=Tower Of Power - Happy 'bout That
TTITLE4=Dink Perry - Back To You
TTITLE5=Tyn Tymes - Emerald Eyes
TTITLE6=Billy Scott - Closed For The Season
TTITLE7=Rhonda Mcdaniel - Good Thing
TTITLE8=Percy Sledge - Big Blue Diamonds
TTITLE9=Mike Stewart and Casey York - Nothing Goes Better
TTITLE10=Rhythm Brothers and John Thompson - Good To Go
TTITLE11=Fat Jack Band - My Heart Keeps Telling Me Yes
TTITLE12=Class Of 60 Somethin' - Walkin' The Dog
TTITLE13=Dobie Gray - The In Crowd
TTITLE14=Ron Moody - Destination Dixie
TTITLE15=Jimmy Hall - She's An Angel
EXTD=
EXTT0=
EXTT1=
EXTT2=
EXTT3=
EXTT4=
EXTT5=
EXTT6=
EXTT7=
EXTT8=
EXTT9=
EXTT10=
EXTT11=
EXTT12=
EXTT13=
EXTT14=
EXTT15=
PLAYORDER=
